# xmcd
#
# Track frame offsets:
#	150
#	19370
#	41892
#	63130
#	83560
#	104995
#	121410
#	139002
#	159360
#
# Disc length: 2325 seconds
#
# Revision: 2
# Processed by: cddbd v1.5.2PL0 Copyright (c) Steve Scherf et al.
# Submitted via: EasyCDDAExtractor 15.3.0.1
#
DISCID=77091309
DTITLE=Rey Ruiz - Fenomenal
DYEAR=2000
DGENRE=Latin
TTITLE0=Muevelo
TTITLE1=Por Amarte Asi
TTITLE2=Tuyo
TTITLE3=Desde Que No Estas
TTITLE4=No Existe Un Lugar
TTITLE5=Ay Mujer
TTITLE6=Voy A Cerrar La Puerta
TTITLE7=No
TTITLE8=Amigos De Verdad
EXTD=Bohemia Records Inc. - Universal Music Latino through Universal Music and V
EXTD=ideo Distribution YEAR: 2000 ID3G: 123
EXTT0=
EXTT1=
EXTT2=
EXTT3=
EXTT4=
EXTT5=
EXTT6=
EXTT7=
EXTT8=
PLAYORDER=
